<?xml version="1.0" encoding="UTF-8" standalone="no"?>
<!-- Created with Inkscape (http://www.inkscape.org/) -->
<svg
   xmlns:dc="http://purl.org/dc/elements/1.1/"
   xmlns:cc="http://creativecommons.org/ns#"
   xmlns:rdf="http://www.w3.org/1999/02/22-rdf-syntax-ns#"
   xmlns:svg="http://www.w3.org/2000/svg"
   xmlns="http://www.w3.org/2000/svg"
   xmlns:sodipodi="http://sodipodi.sourceforge.net/DTD/sodipodi-0.dtd"
   xmlns:inkscape="http://www.inkscape.org/namespaces/inkscape"
   version="1.0"
   width="922.69232"
   height="177.44083"
   id="svg2444"
   sodipodi:version="0.32"
   inkscape:version="0.46"
   sodipodi:docname="+Bright-line_Spectrum-Hydrogen.svg"
   inkscape:output_extension="org.inkscape.output.svg.inkscape">
  <metadata
     id="metadata2477">
    <rdf:RDF>
      <cc:Work
         rdf:about="">
        <dc:format>image/svg+xml</dc:format>
        <dc:type
           rdf:resource="http://purl.org/dc/dcmitype/StillImage" />
      </cc:Work>
    </rdf:RDF>
  </metadata>
  <sodipodi:namedview
     inkscape:window-height="713"
     inkscape:window-width="1016"
     inkscape:pageshadow="2"
     inkscape:pageopacity="0.0"
     guidetolerance="10.0"
     gridtolerance="10.0"
     objecttolerance="10.0"
     borderopacity="1.0"
     bordercolor="#666666"
     pagecolor="#ffffff"
     id="base"
     showgrid="false"
     inkscape:zoom="1.0627848"
     inkscape:cx="440.69257"
     inkscape:cy="95.18795"
     inkscape:window-x="12"
     inkscape:window-y="0"
     inkscape:current-layer="svg2444" />
  <defs
     id="defs2447">
    <inkscape:perspective
       sodipodi:type="inkscape:persp3d"
       inkscape:vp_x="0 : 88.720413 : 1"
       inkscape:vp_y="0 : 1000 : 0"
       inkscape:vp_z="922.69232 : 88.720413 : 1"
       inkscape:persp3d-origin="461.34616 : 59.146942 : 1"
       id="perspective2479" />
  </defs>
  <rect
     width="922.69232"
     height="177.44083"
     x="0"
     y="0"
     id="rect3356"
     style="opacity:1;fill:#cccccc;fill-opacity:1" />
  <rect
     width="865.51691"
     height="78.862587"
     x="29.573467"
     y="33.431297"
     id="rect3350"
     style="opacity:1;fill:#2b0000;fill-opacity:1" />
  <path
     d="M 97.120888,-224.3224 A 1.5,1.5 0 1 1 94.120888,-224.3224 A 1.5,1.5 0 1 1 97.120888,-224.3224 z"
     transform="translate(82.834152,346.18015)"
     id="path2518"
     style="fill:#000000;stroke:none" />
  <path
     d="M 179.44083,123.82931 C 179.44083,122.51493 179.44083,122.51493 179.44083,123.82931 C 179.44083,133.35854 179.44083,104.77085 179.44083,95.241615 C 179.44083,82.556485 179.44083,75.198575 179.44083,89.326925 C 179.44083,94.255835 179.44083,99.184745 179.44083,104.11366 C 179.44083,104.77085 179.44083,105.42804 179.44083,106.08523"
     id="path2520"
     style="fill:none;fill-rule:evenodd;stroke:#000000;stroke-width:1px;stroke-linecap:butt;stroke-linejoin:miter;stroke-opacity:1" />
  <path
     d="M 240.05934,-224.3224 A 1.5,1.5 0 1 1 237.05934,-224.3224 A 1.5,1.5 0 1 1 240.05934,-224.3224 z"
     transform="translate(82.834152,346.18015)"
     id="path2524"
     style="fill:#000000;stroke:none" />
  <path
     d="M 321.39349,121.29156 C 321.39349,119.97718 321.39349,119.97718 321.39349,121.29156 C 321.39349,130.82079 321.39349,102.2331 321.39349,92.703865 C 321.39349,80.018735 321.39349,72.660825 321.39349,86.789175 C 321.39349,91.718085 321.39349,96.646995 321.39349,101.57591 C 321.39349,102.2331 321.39349,102.89029 321.39349,103.54748"
     id="path2528"
     style="fill:none;fill-rule:evenodd;stroke:#000000;stroke-width:1px;stroke-linecap:butt;stroke-linejoin:miter;stroke-opacity:1" />
  <path
     d="M 463.34615,124.24891 C 463.34615,122.93453 463.34615,122.93453 463.34615,124.24891 C 463.34615,133.77814 463.34615,105.19045 463.34615,95.661215 C 463.34615,82.976085 463.34615,75.618175 463.34615,89.746525 C 463.34615,94.675435 463.34615,99.604345 463.34615,104.53326 C 463.34615,105.19045 463.34615,105.84764 463.34615,106.50483"
     id="path2530"
     style="fill:none;fill-rule:evenodd;stroke:#000000;stroke-width:1px;stroke-linecap:butt;stroke-linejoin:miter;stroke-opacity:1" />
  <path
     d="M 605.29881,118.97877 C 605.29881,117.66439 605.29881,117.66439 605.29881,118.97877 C 605.29881,128.508 605.29881,99.920305 605.29881,90.391075 C 605.29881,77.705945 605.29881,70.348035 605.29881,84.476385 C 605.29881,89.405295 605.29881,94.334205 605.29881,99.263115 C 605.29881,99.920305 605.29881,100.5775 605.29881,101.23469"
     id="path2532"
     style="fill:none;fill-rule:evenodd;stroke:#000000;stroke-width:1px;stroke-linecap:butt;stroke-linejoin:miter;stroke-opacity:1" />
  <path
     d="M 749.22304,120.89346 C 749.22304,119.57908 749.22304,119.57908 749.22304,120.89346 C 749.22304,130.42269 749.22304,101.835 749.22304,92.305765 C 749.22304,79.620635 749.22304,72.262725 749.22304,86.391075 C 749.22304,91.319985 749.22304,96.248895 749.22304,101.17781 C 749.22304,101.835 749.22304,102.49219 749.22304,103.14938"
     id="path2534"
     style="fill:none;fill-rule:evenodd;stroke:#000000;stroke-width:1px;stroke-linecap:butt;stroke-linejoin:miter;stroke-opacity:1" />
  <path
     d="M 890.18992,119.99299 C 890.18992,118.67861 890.18992,118.67861 890.18992,119.99299 C 890.18992,129.52222 890.18992,100.93453 890.18992,91.405295 C 890.18992,78.720165 890.18992,71.362255 890.18992,85.490605 C 890.18992,90.419515 890.18992,95.348425 890.18992,100.27734 C 890.18992,100.93453 890.18992,101.59172 890.18992,102.24891"
     id="path2536"
     style="fill:none;fill-rule:evenodd;stroke:#000000;stroke-width:1px;stroke-linecap:butt;stroke-linejoin:miter;stroke-opacity:1" />
  <text
     x="59.146942"
     y="167.58301"
     id="text2554"
     xml:space="preserve"
     style="font-size:40px;font-style:normal;font-weight:normal;fill:#000000;fill-opacity:1;stroke:none;stroke-width:1px;stroke-linecap:butt;stroke-linejoin:miter;stroke-opacity:1;font-family:Bitstream Vera Sans"><tspan
       x="59.146942"
       y="167.58301"
       id="tspan2556" /></text>
  <rect
     width="4.9289117"
     height="76.891029"
     x="762.50269"
     y="35.43129"
     id="rect3332"
     style="fill:#ff0000" />
  <rect
     width="4.9289117"
     height="76.891029"
     x="281.44086"
     y="35.402863"
     id="rect3334"
     style="fill:#00ffff" />
  <rect
     width="4.9289117"
     height="76.891029"
     x="126.93855"
     y="35.257088"
     id="rect3336"
     style="opacity:1;fill:#7a07f7;fill-opacity:1" />
  <rect
     width="4.9289117"
     height="76.891029"
     x="63.582962"
     y="34.417076"
     id="rect3348"
     style="fill:#5e00e9;fill-opacity:1" />
  <text
     xml:space="preserve"
     style="font-size:16px;font-style:normal;font-weight:normal;fill:#000000;fill-opacity:1;stroke:none;stroke-width:1px;stroke-linecap:butt;stroke-linejoin:miter;stroke-opacity:1;font-family:Bitstream Vera Sans"
     x="39.082733"
     y="130.65884"
     id="text2509"><tspan
       sodipodi:role="line"
       id="tspan2511"
       x="39.082733"
       y="130.65884">410.1</tspan></text>
  <text
     xml:space="preserve"
     style="font-size:16px;font-style:normal;font-weight:normal;fill:#000000;fill-opacity:1;stroke:none;stroke-width:1px;stroke-linecap:butt;stroke-linejoin:miter;stroke-opacity:1;font-family:Bitstream Vera Sans"
     x="112.94744"
     y="131.5611"
     id="text2513"><tspan
       sodipodi:role="line"
       id="tspan2515"
       x="112.94744"
       y="131.5611">433.9</tspan></text>
  <text
     xml:space="preserve"
     style="font-size:16px;font-style:normal;font-weight:normal;fill:#000000;fill-opacity:1;stroke:none;stroke-width:1px;stroke-linecap:butt;stroke-linejoin:miter;stroke-opacity:1;font-family:Bitstream Vera Sans"
     x="271.87988"
     y="131.5611"
     id="text2517"><tspan
       sodipodi:role="line"
       id="tspan2519"
       x="271.87988"
       y="131.5611">486.0</tspan></text>
  <text
     xml:space="preserve"
     style="font-size:16px;font-style:normal;font-weight:normal;fill:#000000;fill-opacity:1;stroke:none;stroke-width:1px;stroke-linecap:butt;stroke-linejoin:miter;stroke-opacity:1;font-family:Bitstream Vera Sans"
     x="752.7674"
     y="131.5611"
     id="text2521"><tspan
       sodipodi:role="line"
       id="tspan2523"
       x="752.7674"
       y="131.5611">656.1</tspan></text>
</svg>
